<?xml version="1.0" encoding="UTF-8"?>
<svg xmlns="http://www.w3.org/2000/svg" viewBox="0 0 2086.83 1023.54">
  <defs>
    <style>
      .cls-1 {
        fill: #cecece;
      }

      .cls-1, .cls-2, .cls-3 {
        stroke: #000;
        stroke-miterlimit: 10;
      }

      .cls-2 {
        fill: #dbdbdb;
      }

      .cls-3 {
        fill: #6d6d6d;
      }
    </style>
  </defs>
  <g id="hand">
    <g id="skin">
      <polygon class="cls-3" points="1688.99 560.21 1810.73 554.44 2010.39 594.33 1995.3 552.06 1947.27 520.66 1820.52 478.57 1666.45 455.39 1688.99 560.21"/>
      <polyline class="cls-3" points="1633.52 184.38 1763.2 157.28 2011.91 165.22 2062.97 180.51 2086.03 223.86 1776.37 250.18 1627.48 316.89 1595.19 178.96 1689.88 152.64"/>
      <polyline class="cls-3" points="1624.07 313.67 1791.3 306.7 1980.72 328.51 2026.45 359.06 2035.78 388.07 1795.01 388.07 1649.11 436.63 1628.72 335.99"/>
      <polygon class="cls-3" points="1616.5 209.56 1689.88 562.18 1503.83 612.73 1336.85 384.12 1592.33 184.38 1616.5 209.56"/>
      <polygon class="cls-3" points="1243.94 396.51 1428.2 199.86 1717.75 35.73 1901.23 .51 1968.59 9.41 1994.91 52.76 1750.27 123.99 1500.98 283.47 1435.94 475.47 1601.62 461.54 1719.3 401.15 1768.85 444.51 1649.62 548.25 1408.07 655.09 1127.81 718.57 748.46 828.51 510.01 267.99 1243.94 396.51"/>
    </g>
    <g id="nails">
      <polygon class="cls-1" points="1865.62 39.6 1865.62 7.34 1901.23 .51 1968.59 9.41 1938.01 26.83 1865.62 39.6"/>
      <polygon class="cls-1" points="1973.27 163.99 1962.39 197.54 2035.78 197.54 2062.97 180.51 2011.91 165.22 1973.27 163.99"/>
      <polygon class="cls-1" points="1943.17 324.18 1936.85 353.93 2000.33 362.44 2026.45 359.06 1980.72 328.51 1943.17 324.18"/>
      <polygon class="cls-1" points="1915.96 510.27 1904.33 536.64 1962.39 557.54 1995.3 552.06 1947.27 520.66 1915.96 510.27"/>
      <polygon class="cls-1" points="1721.18 402.8 1669.49 430.05 1677.49 468.51 1721.18 477.8 1764.04 440.3 1721.18 402.8"/>
    </g>
  </g>
  <g id="shirt">
    <polygon class="cls-2" points="1106.91 365.57 1101.1 577.67 1192.85 711.22 118.27 1022.9 .59 144.96 987.23 341.71 1106.91 365.57"/>
    <polygon class="cls-2" points="943.56 583.93 1018.87 775.71 1192.85 711.22 1101.1 577.67 1106.91 365.57 937.36 306.7 943.56 583.93"/>
  </g>
</svg>