<?xml version="1.0" encoding="UTF-8"?>
<svg id="Layer_1" data-name="Layer 1" xmlns="http://www.w3.org/2000/svg" viewBox="0 0 516.97 652.42">
  <defs>
    <style>
      .cls-1 {
        fill: #db0000;
      }

      .cls-1, .cls-2, .cls-3, .cls-4, .cls-5, .cls-6 {
        stroke: #000;
        stroke-miterlimit: 10;
      }

      .cls-2 {
        fill: #bc0000;
      }

      .cls-3 {
        fill: #c90000;
      }

      .cls-4 {
        fill: #ce0000;
      }

      .cls-5 {
        fill: #ef0000;
      }

      .cls-6 {
        fill: #ba0000;
      }
    </style>
  </defs>
  <polygon class="cls-2" points="388.34 489.27 360.42 554.97 317.15 523.31 360.42 469.11 376.37 461.37 388.34 489.27"/>
  <polygon class="cls-2" points="424.08 378.91 435.91 300 414.16 303.44 405.4 363.82 424.08 378.91"/>
  <polygon class="cls-5" points="37.66 436.6 81.58 625.57 406.95 651.82 377.53 617.76 444.11 616.21 317.15 523.31 372.89 472.21 447.21 554.28 410.05 450.53 478.18 483.05 416.24 363.82 414.16 303.44 494.68 294.15 516.36 229.11 391.33 167.57 277.91 30.92 308.87 114.53 154.04 1.5 215.97 142.02 235.71 190.79 247.33 229.11 106.18 326.66 93.23 347.43 93.15 326.66 66.69 316.98 24.89 326.66 .5 359.21 .5 404.08 29.15 419.57 51.31 414.71 37.66 436.6"/>
  <polygon class="cls-6" points="444.11 616.21 360.42 598.39 377.53 617.76 444.11 616.21"/>
  <polygon class="cls-5" points="406.95 651.82 377.53 617.76 300.79 530.91 234.31 579.82 81.58 625.57 406.95 651.82"/>
  <polygon class="cls-5" points="81.58 625.57 234.31 579.82 410.05 450.53 416.24 363.82 247.33 229.11 106.18 326.66 51.31 414.71 81.58 625.57"/>
  <polygon class="cls-2" points="308.87 114.53 391.33 167.57 277.91 30.92 308.87 114.53"/>
  <polygon class="cls-4" points="335.2 314.33 414.16 303.44 416.24 363.82 335.2 314.33"/>
  <polygon class="cls-5" points="410.05 450.53 416.24 363.82 478.18 483.05 410.05 450.53"/>
  <polygon class="cls-5" points="234.31 579.82 410.05 450.53 330.82 395.57 234.31 579.82"/>
  <polygon class="cls-5" points="247.33 229.11 330.82 395.57 410.05 450.53 416.24 363.82 247.33 229.11"/>
  <polygon class="cls-1" points="317.15 523.31 300.79 530.91 360.42 598.39 444.11 616.21 317.15 523.31"/>
  <polygon class="cls-3" points="51.31 414.71 37.66 436.6 81.58 625.57 51.31 414.71"/>
</svg>