<?xml version="1.0" encoding="UTF-8"?>
<svg id="container" xmlns="http://www.w3.org/2000/svg" viewBox="0 0 592.32 946.84">
  <defs>
    <style>
      .cls-1 {
        fill: none;
      }

      .cls-1, .cls-2, .cls-3, .cls-4, .cls-5, .cls-6, .cls-7, .cls-8, .cls-9, .cls-10, .cls-11, .cls-12, .cls-13, .cls-14, .cls-15, .cls-16, .cls-17, .cls-18 {
        stroke: #000;
        stroke-miterlimit: 10;
      }

      .cls-2 {
        fill: #ddd;
      }

      .cls-3 {
        fill: #aaa;
      }

      .cls-4 {
        fill: #8e8e8e;
      }

      .cls-5 {
        fill: #7c7c7c;
      }

      .cls-6 {
        fill: #b5b5b5;
      }

      .cls-7 {
        fill: #2d2d2d;
      }

      .cls-8 {
        fill: #333;
      }

      .cls-9 {
        fill: #3a3a3a;
      }

      .cls-10 {
        fill: #bcbcbc;
      }

      .cls-11 {
        fill: #b7b7b7;
      }

      .cls-12 {
        fill: #afafaf;
      }

      .cls-13 {
        fill: #686868;
      }

      .cls-14 {
        fill: #c1c1c1;
      }

      .cls-15 {
        fill: #6d6d6d;
      }

      .cls-16 {
        fill: #2b2b2b;
      }

      .cls-17 {
        fill: #d6d6d6;
      }

      .cls-18 {
        fill: #282828;
      }
    </style>
  </defs>
  <polygon class="cls-8" points="283.94 360.95 .58 395.02 308.71 419.79 587.42 381.08 283.94 360.95"/>
  <g id="pencil">
    <polygon class="cls-13" points="426.44 48.79 290.21 707.4 303.96 694.17 328.49 695.9 342.28 712.57 475.59 59.37 463.9 44.08 443.92 37.83 426.44 48.79"/>
    <polygon class="cls-12" points="299.18 809.55 312.42 779.78 342.28 712.57 328.49 695.9 308.89 689.69 290.21 707.4 299.18 809.55"/>
    <polygon class="cls-18" points="305.8 773.35 312.42 779.78 299.18 809.55 296.67 780.88 305.8 773.35"/>
    <polygon class="cls-3" points="472.83 72.88 460.26 58.15 440.52 51.45 423.23 64.31 426.44 48.79 443.92 37.83 463.9 44.08 475.59 59.37 472.83 72.88"/>
    <polygon class="cls-9" points="480.06 28.82 475.59 59.37 463.9 44.08 443.92 37.83 426.44 48.79 434.23 19.47 445.42 13.64 468.8 18.74 480.06 28.82"/>
    <line class="cls-1" x1="328.49" y1="695.9" x2="460.26" y2="58.15"/>
    <line class="cls-1" x1="440.52" y1="51.45" x2="308.89" y2="689.69"/>
  </g>
  <g id="pen">
    <polygon class="cls-9" points="231.79 746.19 176.65 388.49 180.21 380.72 122.09 21.6 99.91 .52 74.04 2.62 57.12 25.81 115.86 392.17 121.71 395.44 179.71 757.67 223.94 873.61 231.79 746.19"/>
    <polygon class="cls-17" points="209.83 834.67 223.94 873.61 225.93 832.28 209.83 834.67"/>
    <polygon class="cls-2" points="231.79 746.19 220.63 737.87 214.61 737.19 209.34 736.61 196.2 738.36 187.04 743.43 179.71 757.67 209.83 834.67 225.93 832.28 231.79 746.19"/>
    <polygon class="cls-7" points="176.65 388.49 150.29 385.55 121.71 395.44 179.71 757.67 206.26 745.7 231.79 746.19 176.65 388.49"/>
    <polygon class="cls-6" points="180.21 380.72 148.62 377.19 115.86 392.17 121.71 395.44 150.29 385.55 176.65 388.49 180.21 380.72"/>
    <polygon class="cls-7" points="176.44 357.44 144.5 353.87 111.98 367.96 115.86 392.17 148.62 377.19 180.21 380.72 176.44 357.44"/>
    <polygon class="cls-14" points="174.9 347.88 142.71 344.29 110.58 359.23 111.98 367.96 144.5 353.87 176.44 357.44 174.9 347.88"/>
    <polygon class="cls-11" points="128.93 63.81 95.26 50.14 64.11 69.43 62.01 56.35 93.98 35.12 126.67 49.9 128.93 63.81"/>
    <polygon class="cls-16" points="126.67 49.9 93.98 35.12 62.01 56.35 57.12 25.81 74.04 2.62 99.91 .52 122.09 21.6 126.67 49.9"/>
    <polygon class="cls-10" points="87.08 26.47 100.07 35.27 148.09 317.29 139.14 330.62 126.1 316.98 80.91 39.94 87.08 26.47"/>
    <polygon class="cls-5" points="224.34 865.27 221.09 865.75 223.94 873.61 224.34 865.27"/>
  </g>
  <polygon class="cls-4" points=".58 395.02 71.81 905.98 290.16 946.24 514.65 905.98 587.42 381.08 308.71 419.79 .58 395.02"/>
  <polygon class="cls-15" points="290.16 946.24 308.71 419.79 587.42 381.08 514.65 905.98 290.16 946.24"/>
  <line class="cls-1" x1=".58" y1="395.02" x2="302.66" y2="591.61"/>
  <line class="cls-1" x1="43.12" y1="700.16" x2="302.66" y2="591.61"/>
  <line class="cls-1" x1="290.16" y1="946.24" x2="43.12" y2="700.16"/>
  <line class="cls-1" x1="587.42" y1="381.08" x2="302.66" y2="591.61"/>
  <line class="cls-1" x1="535.06" y1="758.71" x2="302.66" y2="591.61"/>
  <line class="cls-1" x1="290.16" y1="946.24" x2="535.06" y2="758.71"/>
  <line class="cls-1" x1="308.71" y1="419.79" x2="23.46" y2="559.18"/>
  <line class="cls-1" x1="297.04" y1="751.06" x2="23.46" y2="559.18"/>
  <line class="cls-1" x1="71.81" y1="905.98" x2="297.04" y2="751.06"/>
  <line class="cls-1" x1="559.36" y1="583.46" x2="308.71" y2="419.79"/>
  <line class="cls-1" x1="297.04" y1="751.06" x2="559.36" y2="583.46"/>
  <line class="cls-1" x1="514.65" y1="905.98" x2="297.04" y2="751.06"/>
</svg>