<?xml version="1.0" encoding="UTF-8"?>
<svg id="Layer_1" data-name="Layer 1" xmlns="http://www.w3.org/2000/svg" viewBox="0 0 1350.97 411.33">
  <defs>
    <style>
      .cls-1 {
        fill: #ddd;
      }

      .cls-1, .cls-2, .cls-3, .cls-4, .cls-5, .cls-6, .cls-7, .cls-8, .cls-9, .cls-10 {
        stroke: #000;
        stroke-miterlimit: 10;
      }

      .cls-2 {
        fill: #7c7c7c;
      }

      .cls-3 {
        fill: #b5b5b5;
      }

      .cls-4 {
        fill: #2d2d2d;
      }

      .cls-5 {
        fill: #3a3a3a;
      }

      .cls-6 {
        fill: #bcbcbc;
      }

      .cls-7 {
        fill: #b7b7b7;
      }

      .cls-8 {
        fill: #c1c1c1;
      }

      .cls-9 {
        fill: #2b2b2b;
      }

      .cls-10 {
        fill: #d6d6d6;
      }
    </style>
  </defs>
  <polygon class="cls-5" points="1147.24 10.64 595.74 159.77 582.93 155.55 29.72 309.59 .53 348.09 8.36 388.3 47.71 410.79 612.16 254.5 616.26 244.74 1174.37 90.33 1348.51 .66 1147.24 10.64"/>
  <polygon class="cls-10" points="1289.9 29.61 1348.51 .66 1283.33 4.77 1289.9 29.61"/>
  <polygon class="cls-1" points="1147.24 10.64 1136.14 29.61 1136.14 39.17 1136.14 47.55 1141.2 67.84 1150.76 81.34 1174.37 90.33 1289.9 29.61 1283.33 4.77 1147.24 10.64"/>
  <polygon class="cls-4" points="595.74 159.77 595.74 201.65 616.26 244.74 1174.37 90.33 1150.94 50.79 1147.24 10.64 595.74 159.77"/>
  <polygon class="cls-3" points="582.93 155.55 582.93 205.72 612.16 254.5 616.26 244.74 595.74 201.65 595.74 159.77 582.93 155.55"/>
  <polygon class="cls-4" points="547.07 165.53 547.07 216.27 574.87 264.82 612.16 254.5 582.93 205.72 582.93 155.55 547.07 165.53"/>
  <polygon class="cls-8" points="532.34 169.63 532.34 220.76 561.41 268.55 574.87 264.82 547.07 216.27 547.07 165.53 532.34 169.63"/>
  <polygon class="cls-7" points="94.75 291.48 79.2 346.7 114.91 392.18 94.75 397.76 55.86 351.33 73.32 297.45 94.75 291.48"/>
  <polygon class="cls-9" points="73.32 297.45 55.86 351.33 94.75 397.76 47.71 410.79 8.36 388.3 .53 348.09 29.72 309.59 73.32 297.45"/>
  <polygon class="cls-6" points="43.5 363.67 55.02 341.75 489.04 217.04 511.53 228.74 492.42 251.6 65.7 370.98 43.5 363.67"/>
  <polygon class="cls-2" points="1335.36 1.49 1336.68 6.51 1348.51 .66 1335.36 1.49"/>
</svg>