<?xml version="1.0" encoding="UTF-8"?>
<svg id="Layer_1" data-name="Layer 1" xmlns="http://www.w3.org/2000/svg" viewBox="0 0 686.56 748.58">
  <defs>
    <style>
      .cls-1 {
        fill: #efe800;
      }

      .cls-1, .cls-2, .cls-3, .cls-4, .cls-5, .cls-6 {
        stroke: #000;
        stroke-miterlimit: 10;
      }

      .cls-2 {
        fill: none;
      }

      .cls-3 {
        fill: #e2e200;
      }

      .cls-4 {
        fill: #f3ff00;
      }

      .cls-5 {
        fill: #e5e500;
      }

      .cls-6 {
        fill: #e0e000;
      }
    </style>
  </defs>
  <polygon class="cls-4" points="682.99 199.81 474.99 1.15 124.32 14.48 1.65 247.81 1.65 529.15 144.32 697.15 381.65 747.81 637.65 597.15 305.47 646.55 81.65 406.48 120.32 181.15 316.32 59.81 473.41 74.4 682.99 199.81"/>
  <g id="Layer_2" data-name="Layer 2">
    <polygon class="cls-3" points="637.65 597.15 305.47 646.55 381.65 747.81 637.65 597.15"/>
  </g>
  <g id="Layer_3" data-name="Layer 3">
    <polygon class="cls-2" points="144.32 697.15 305.47 646.55 381.65 747.81 144.32 697.15"/>
  </g>
  <g id="Layer_4" data-name="Layer 4">
    <polygon class="cls-6" points="1.65 529.15 305.47 646.55 144.32 697.15 1.65 529.15"/>
  </g>
  <g id="Layer_5" data-name="Layer 5">
    <polygon class="cls-2" points="81.65 406.48 1.65 529.15 305.47 646.55 81.65 406.48"/>
  </g>
  <g id="Layer_6" data-name="Layer 6">
    <polygon class="cls-6" points="1.65 247.81 81.65 406.48 1.65 529.15 1.65 247.81"/>
  </g>
  <g id="Layer_7" data-name="Layer 7">
    <polygon class="cls-2" points="120.32 181.15 1.65 247.81 81.65 406.48 120.32 181.15"/>
  </g>
  <g id="Layer_8" data-name="Layer 8">
    <polygon class="cls-5" points="124.32 14.48 120.32 181.15 1.65 247.81 124.32 14.48"/>
  </g>
  <g id="Layer_9" data-name="Layer 9">
    <polygon class="cls-2" points="316.32 59.81 124.32 14.48 120.32 181.15 316.32 59.81"/>
  </g>
  <g id="Layer_10" data-name="Layer 10">
    <polygon class="cls-5" points="474.99 1.15 316.32 59.81 124.32 14.48 474.99 1.15"/>
  </g>
  <g id="Layer_11" data-name="Layer 11">
    <polygon class="cls-2" points="473.41 74.4 474.99 1.15 316.32 59.81 473.41 74.4"/>
  </g>
  <g id="Layer_12" data-name="Layer 12">
    <polygon class="cls-1" points="682.99 199.81 473.41 74.4 474.99 1.15 682.99 199.81"/>
  </g>
</svg>