<?xml version="1.0" encoding="UTF-8"?>
<svg xmlns="http://www.w3.org/2000/svg" viewBox="0 0 1253.82 694.78">
  <defs>
    <style>
      .cls-1 {
        fill: #d3d3d3;
      }
    </style>
  </defs>
  <g id="Calque_2" data-name="Calque 2">
    <path class="cls-1" d="m717.55,152.12c-12.19,14.95-34.93,10.93-51.56,8.38-22.68-3.48-45.2-7.98-67.51-13.34-44.34-10.64-87.84-24.6-130.55-40.53-21.57-8.05-42.94-16.6-64.17-25.5s-41.5-18.37-62.74-26.3c-36.46-13.63-77.68-21.09-114.21-3.48-7.77,3.75-15.03,8.62-21.27,14.58-6.98,6.67-12.25,14.68-16.7,23.2-9.15,17.54-16.64,38.84-36,47.67-4.35,1.99-9.01,2.92-13.79,2.76-1.93-.07-1.93,2.93,0,3,19.35.67,33.48-15.51,41.94-31.1,5.14-9.48,9.22-19.53,14.89-28.73,5.01-8.13,11.44-15.23,19.16-20.87,14.81-10.83,33.06-16.34,51.23-17.68,21.38-1.58,42.63,2.9,62.83,9.6,21.88,7.26,42.82,17.07,64,26.07,21.13,8.98,42.41,17.64,63.86,25.82,43.11,16.44,87,30.96,131.78,42.18,22.25,5.57,44.72,10.33,67.35,14.08,17.06,2.83,37.78,7.87,54.18-.2,3.65-1.8,6.83-4.35,9.4-7.5,1.21-1.48-.9-3.62-2.12-2.12h0Z"/>
    <path class="cls-1" d="m640.13,78.24c7.11,19.99.44,41.13-11.03,58.26-11.82,17.66-29.33,31.35-47.93,41.28-41.9,22.37-91.21,24.91-137.17,16.1-12.73-2.44-25.31-5.68-37.68-9.54-12.11-3.78-23.99-8.25-36.06-12.14-21.16-6.83-50.71-16.32-67.77,3.71-6.6,7.74-10.22,17.34-13.44,26.85s-6.24,17.96-10.42,26.57c-8.62,17.78-19.86,34.07-33.31,48.44-26.7,28.54-61.41,49.33-99.49,58.25-4.74,1.11-9.52,2.03-14.32,2.77-3.2.5-4.98,4.51-4.19,7.38.94,3.42,4.17,4.69,7.38,4.19,40.4-6.27,78.27-25.65,108.22-53.3,14.92-13.77,27.92-29.75,38.29-47.21,5.23-8.81,9.71-18.02,13.55-27.52s6.19-19.07,10.14-27.7,8.91-15.76,18.3-18.05c11.17-2.73,23.86,1.26,34.56,4.33,12.67,3.64,25.02,8.29,37.51,12.45s25.1,7.74,37.93,10.53c48.36,10.51,99.57,9.65,145.09-11.31,20.21-9.3,39.37-22.73,53.62-39.94,14.04-16.94,24.71-38.85,23.12-61.36-.39-5.54-1.45-11-3.31-16.23-1.09-3.05-4.09-5.09-7.38-4.19-2.95.81-5.28,4.31-4.19,7.38h0Z"/>
    <path class="cls-1" d="m1242.73,135.22c-10.05,20.47-20.17,41.25-34.15,59.41-13.16,17.09-29.65,31.24-44.87,46.41-15.53,15.48-29.56,32.37-38.69,52.48-9.55,21.04-14.82,44.64-12.94,67.8s11.08,42.43,23.23,61.14c11.62,17.89,25.22,34.74,34.16,54.24,4.48,9.77,7.59,20.48,7.63,31.29.04,10.1-2.85,19.9-7.49,28.82-10.08,19.37-26.5,33.97-41.2,49.72-7.54,8.08-14.63,16.59-20.56,25.93-4.82,7.59-9.02,15.56-13.27,23.49-7.95,14.83-16.3,30.8-29.59,41.22-3.32,2.6-7.01,4.74-10.82,6.53-2.93,1.38-3.68,5.59-2.15,8.21,1.76,3.01,5.26,3.53,8.21,2.15,34.51-16.18,43.22-57.65,64.98-85.57,13.85-17.76,31.47-32.17,44.98-50.24,6.47-8.65,11.91-18.13,15.35-28.4,3.64-10.89,4.29-22.27,2.52-33.58-6.84-43.59-45.89-72.37-59.46-113.14-7.34-22.04-5.82-45.93.92-67.91,6.4-20.89,17.96-39.27,32.67-55.31,14.61-15.92,31.22-29.87,45.7-45.9,15.55-17.21,27.26-36.99,37.7-57.6,2.54-5.02,5.02-10.07,7.5-15.12,1.43-2.91.79-6.49-2.15-8.21-2.64-1.55-6.77-.77-8.21,2.15h0Z"/>
    <path class="cls-1" d="m1037.59,112.49c8.48,23.42,16.97,46.84,25.45,70.27,4.02,11.1,8.75,22.67,8.35,34.69-.39,11.74-7.19,20.8-14.62,29.3-29.61,33.86-60.88,67.15-82.22,107.12-10.31,19.3-18.3,40.03-22.17,61.61-4.01,22.32-2.62,44.36,1.96,66.47,4.7,22.71,11.57,45.12,12.6,68.42.91,20.77-3.36,41.2-15.94,58.08-10.45,14.02-24.81,24.55-39.18,34.23s-29.67,18.96-43.18,30.26c-3.24,2.71-6.37,5.56-9.37,8.54-1.37,1.36.75,3.49,2.12,2.12,25.14-25.01,59.49-38.38,84.05-64.02,13.2-13.79,21.49-30.62,23.82-49.64,2.75-22.43-1.96-44.87-7.02-66.62-5.42-23.3-10.79-46.52-9.05-70.62,1.63-22.59,8.32-44.66,17.85-65.13,19.51-41.92,50.73-76.67,81.05-111,6.99-7.91,14.99-15.79,19.28-25.61,4.42-10.11,3.32-21.18.45-31.56-3.24-11.71-7.94-23.08-12.07-34.49-4.31-11.89-8.61-23.78-12.92-35.66-2.12-5.86-4.24-11.71-6.36-17.57-.65-1.8-3.55-1.02-2.89.8h0Z"/>
  </g>
  <g id="Calque_3" data-name="Calque 3">
    <path class="cls-1" d="m807.3,3.45c-11.63,19.9-38.71,21.45-58.94,17.03-27.98-6.11-53.68-22.59-83.23-20.25-24.98,1.97-46.22,15.89-65.02,31.48-20.6,17.08-39.2,36.31-61.98,50.63-24.78,15.58-52.47,25.73-81.74,28.08-16.12,1.29-32.3.85-48.44,1.16-15.16.29-30.22,1.56-45.15,4.28-58.52,10.66-111.38,40.08-163.76,66.81-55.96,28.56-113.73,53.26-173.44,72.85-7.46,2.45-14.94,4.81-22.44,7.11-5.52,1.69-3.17,10.38,2.39,8.68,60.89-18.63,120.2-42.33,177.32-70.45,53.65-26.41,105.96-57.8,164.46-72.45,14.25-3.57,28.77-6.07,43.43-7.11,16.66-1.18,33.36-.64,50.04-1.09,15.28-.41,30.54-1.81,45.4-5.53,14.02-3.51,27.59-8.83,40.44-15.43,24.52-12.58,44.88-30.34,65.29-48.56,18.51-16.53,38.55-34.15,63.37-39.9,29.39-6.81,56.48,8.75,83.91,16.65,21.04,6.06,47.3,6.82,65.4-7.37,4.25-3.33,7.73-7.41,10.45-12.06,2.93-5.01-4.85-9.55-7.77-4.54h0Z"/>
    <path class="cls-1" d="m1147.22,71.2c12.96,14.09,14.04,35.39,7.95,52.78-6.91,19.76-22.7,35.24-38.74,47.96-9.01,7.15-18.52,13.64-27.81,20.41-4.87,3.55-9.69,7.16-14.38,10.94-4.4,3.53-9.12,7.12-12.8,11.43-3.56,4.17-5.76,9.45-3.69,14.85,1.89,4.94,6.27,8.82,9.47,12.93,6.9,8.85,12.85,18.49,17.81,28.55,5.16,10.47,10.24,22.13,9.92,34.03-.3,11.01-6.13,21.22-12.03,30.19-11.84,17.98-28.21,32.69-45.59,45.19-18.33,13.19-38.42,24.35-52.42,42.55-7.2,9.35-12.87,19.75-18.44,30.12s-11.35,21.79-16.6,32.89c-9.54,20.15-17.59,40.92-26.68,61.27-8.39,18.77-18.01,37.47-31.83,52.88-3.38,3.77-6.99,7.31-10.81,10.62-4.38,3.8,2.01,10.14,6.36,6.36,32.99-28.62,46.21-71.94,63.38-110.56,10.05-22.62,20.93-45.25,33.8-66.42,6.06-9.96,13.18-18.81,22.06-26.39,8.67-7.41,18.32-13.56,27.73-19.97,18.14-12.36,35.54-26.25,49.21-43.56,7.06-8.93,13.45-18.62,17.57-29.29,4.51-11.68,3.87-23.86.02-35.63s-9.08-22.12-15.24-32.21c-2.99-4.89-6.22-9.63-9.69-14.19-1.68-2.21-3.39-4.39-5.16-6.52-1.49-1.8-3.66-3.74-4.45-6-1.5-4.3,4.92-8.67,7.6-11.03,4.45-3.9,9.09-7.58,13.82-11.13,9.56-7.18,19.45-13.91,28.99-21.13,17.32-13.11,34.19-28.29,43.74-48.2,8.64-18.03,10.5-39.74,1.61-58.07-2.14-4.41-4.99-8.44-8.31-12.04-3.93-4.27-10.28,2.11-6.36,6.36h0Z"/>
    <path class="cls-1" d="m1045.75,15.04c-1.54,23.45-7.97,50.34-28.59,64.41-10.88,7.42-23.98,10.51-36.97,11.39-6.58.45-13.19.39-19.78.07-6.18-.31-12.88-1.5-18.83.77-6.73,2.58-9.03,8.51-10.26,15.12-1.25,6.72-2.38,13.47-3.46,20.22-2.21,13.75-4.22,27.54-6.66,41.25-4.8,26.98-11.22,54.19-24.38,78.46-26.82,49.44-78.85,76.57-130.74,92.45-29.54,9.04-59.85,14.92-89.79,22.42-14.58,3.65-28.98,7.96-42.8,13.9-14.29,6.15-27.53,14.31-40.46,22.89-48.84,32.4-98.34,65.47-140.18,106.82-5.14,5.08-10.15,10.3-15.02,15.63-3.9,4.27,2.45,10.65,6.36,6.36,40.16-43.99,89.42-77.94,138.52-111.07,12.64-8.53,25.21-17.22,38.56-24.61s27.52-12.86,42.17-17.15c29.9-8.74,60.69-14.08,90.72-22.37,53.46-14.76,107.89-38.7,140.91-85.39,32.81-46.41,34.71-105.01,45.19-158.88.46-2.36.85-5.33,2.93-6.88,2.36-1.76,5.91-1.58,8.69-1.48,6.64.25,13.24.83,19.9.77,13.26-.13,26.71-1.83,38.99-7.05,24.53-10.42,37.24-34.27,41.76-59.48,1.1-6.14,1.81-12.36,2.22-18.58.38-5.78-8.62-5.76-9,0h0Z"/>
  </g>
</svg>