<?xml version="1.0" encoding="UTF-8"?>
<svg id="Calque_1" data-name="Calque 1" xmlns="http://www.w3.org/2000/svg" viewBox="0 0 662.42 676">
  <defs>
    <style>
      .cls-1 {
        fill: #f4f4f4;
      }

      .cls-1, .cls-2, .cls-3, .cls-4, .cls-5, .cls-6, .cls-7, .cls-8, .cls-9, .cls-10 {
        stroke: #000;
        stroke-miterlimit: 10;
      }

      .cls-2 {
        fill: #ddd;
      }

      .cls-3 {
        fill: #eaeaea;
      }

      .cls-4 {
        fill: #efefef;
      }

      .cls-5 {
        fill: #d3d3d3;
      }

      .cls-6 {
        fill: #bababa;
      }

      .cls-7 {
        fill: #f9f9f9;
      }

      .cls-8 {
        fill: #dbdbdb;
      }

      .cls-9 {
        fill: #d1d1d1;
      }

      .cls-10 {
        fill: #fff;
      }
    </style>
  </defs>
  <polygon class="cls-10" points="114.7 364.72 .7 408.72 73.7 98.72 126.7 118.72 236.7 68.72 339.46 51.72 414.7 .72 451.7 66.72 591.7 132.72 571.7 260.72 661.7 369.72 554.7 451.72 500.7 591.72 391.7 663.72 300.7 646.72 233.7 572.72 206.7 672.72 78.7 474.72 114.7 364.72"/>
  <polygon class="cls-3" points="196.7 426.72 78.7 474.72 206.7 672.72 196.7 426.72"/>
  <polygon class="cls-10" points="233.7 572.72 319.7 415.72 196.7 426.72 206.7 672.72 233.7 572.72"/>
  <polygon class="cls-10" points="300.7 646.72 319.7 415.72 233.7 572.72 300.7 646.72"/>
  <polygon class="cls-5" points="391.7 663.72 423.7 457.72 500.7 591.72 391.7 663.72"/>
  <polygon class="cls-1" points="319.7 415.72 423.7 457.72 300.7 646.72 319.7 415.72"/>
  <polygon class="cls-10" points="391.7 663.72 300.7 646.72 423.7 457.72 391.7 663.72"/>
  <polygon class="cls-8" points="554.7 451.72 423.7 457.72 500.7 591.72 554.7 451.72"/>
  <polygon class="cls-10" points="571.7 260.72 554.7 451.72 661.7 369.72 571.7 260.72"/>
  <polygon class="cls-4" points="423.7 280.42 571.7 260.72 554.7 451.72 423.7 280.42"/>
  <polygon class="cls-2" points="319.7 415.72 423.7 280.42 423.7 457.72 319.7 415.72"/>
  <polygon class="cls-10" points="554.7 451.72 423.7 457.72 423.7 280.42 554.7 451.72"/>
  <path class="cls-5" d="m451.7,66.72s-69,118-67,118,207-52,207-52l-140-66Z"/>
  <polygon class="cls-3" points="339.46 51.72 384.7 184.72 451.7 66.72 339.46 51.72"/>
  <polygon class="cls-10" points="414.7 .72 339.46 51.72 451.7 66.72 414.7 .72"/>
  <polygon class="cls-3" points="384.7 184.72 571.7 260.72 591.7 132.72 384.7 184.72"/>
  <polygon class="cls-10" points="423.7 280.42 384.7 184.72 571.7 260.72 423.7 280.42"/>
  <polygon class="cls-6" points="114.7 364.72 241.7 245.72 319.7 415.72 114.7 364.72"/>
  <polygon class="cls-5" points="236.7 68.72 241.7 245.72 384.7 184.72 236.7 68.72"/>
  <polygon class="cls-10" points="423.7 280.42 241.7 245.72 319.7 415.72 423.7 280.42"/>
  <polygon class="cls-7" points="384.7 184.72 241.7 245.72 423.7 280.42 384.7 184.72"/>
  <polygon class="cls-10" points="236.7 68.72 339.46 51.72 384.7 184.72 236.7 68.72"/>
  <polygon class="cls-3" points="126.7 118.72 241.7 245.72 236.7 68.72 126.7 118.72"/>
  <polygon class="cls-10" points="114.7 364.72 126.7 118.72 241.7 245.72 114.7 364.72"/>
  <polygon class="cls-10" points="73.7 98.72 114.7 364.72 .7 408.72 73.7 98.72"/>
  <polygon class="cls-9" points="126.7 118.72 73.7 98.72 114.7 364.72 126.7 118.72"/>
  <polygon class="cls-1" points="319.7 415.72 114.7 364.72 78.7 474.72 196.7 426.72 319.7 415.72"/>
</svg>