<?xml version="1.0" encoding="UTF-8"?>
<svg id="Layer_1" data-name="Layer 1" xmlns="http://www.w3.org/2000/svg" viewBox="0 0 1181.89 390.99">
  <defs>
    <style>
      .cls-1 {
        fill: none;
      }

      .cls-1, .cls-2, .cls-3, .cls-4, .cls-5, .cls-6 {
        stroke: #000;
        stroke-miterlimit: 10;
      }

      .cls-2 {
        fill: #aaa;
      }

      .cls-3 {
        fill: #3a3a3a;
      }

      .cls-4 {
        fill: #afafaf;
      }

      .cls-5 {
        fill: #686868;
      }

      .cls-6 {
        fill: #282828;
      }
    </style>
  </defs>
  <polygon class="cls-5" points="71.26 379.71 1049.93 86.38 1022.32 77.55 1006.94 43.51 1019.26 13.05 49.93 306.38 37.93 333.05 44 364.26 71.26 379.71"/>
  <polygon class="cls-4" points="1180 .65 1130.65 4.45 1019.26 13.05 1006.94 43.51 1012.78 74.2 1049.93 86.38 1180 .65"/>
  <polygon class="cls-6" points="1126.84 17.94 1130.65 4.45 1180 .65 1143.49 24.71 1126.84 17.94"/>
  <polygon class="cls-2" points="69.98 300.31 59.36 327.74 64.67 358.97 94.33 372.8 71.26 379.71 44 364.26 37.93 333.05 49.93 306.38 69.98 300.31"/>
  <polygon class="cls-3" points="5.87 322.45 49.93 306.38 37.93 333.05 44 364.26 71.26 379.71 26.45 390.45 10.58 379.71 .52 344.78 5.87 322.45"/>
  <line class="cls-1" x1="1006.94" y1="43.51" x2="59.36" y2="327.74"/>
  <line class="cls-1" x1="64.67" y1="358.97" x2="1012.78" y2="74.2"/>
</svg>