<?xml version="1.0" encoding="UTF-8"?><svg xmlns="http://www.w3.org/2000/svg" viewBox="0 0 1307.82 441.54"><defs><style>.d{fill:aqua;}.e{fill:none;}.e,.f,.g{stroke:#000;stroke-miterlimit:10;}.f{fill:#595959;}.g{fill:#d6d6d6;}</style></defs><g id="a"><polygon class="g" points="866.06 440.5 995.17 379.07 1071.82 231.59 1098.26 71.42 1104.85 .5 1063.39 .5 866.06 440.5"/><polyline class="e" points="1099.69 .5 1093.49 70.43 1066.65 228.36 991.3 373.91 868.29 435.54"/><polyline class="e" points="871.63 428.08 986.72 368.75 1059.43 227.33 1088.07 69.91 1095.04 .5"/><polyline class="e" points="1090.01 .5 1083.17 68.36 1052.72 224.49 982.41 363.85 874.8 421"/><polyline class="e" points="1084.4 .5 1077.36 69.27 1046.3 222.23 978.53 359.72 877.97 413.95"/><polyline class="e" points="881.39 406.32 974.27 355.85 1040.07 218.02 1071.43 68.62 1079.17 .5"/><polyline class="e" points="1073.88 .5 1065.43 66.98 1034.14 214.29 970.65 351.72 885.82 396.43"/><polyline class="e" points="1068.33 .5 1058.91 64.49 1026.91 210.75 967.04 346.82 890.95 385.01"/><polyline class="e" points="1063.39 .5 1053.75 62.69 1021.11 207.23 963.43 343.46 894.96 376.06"/><polygon class="f" points="1.11 436.5 135.04 285.27 224.85 162.17 296.75 4.5 1063.39 .5 1011.43 188.28 952.59 316.36 884.07 440.5 1.11 436.5"/><g id="b"><g><path class="d" d="M699.06,90.99c.18-5.5,.23-8.25,.26-13.75,0-3.81-.02-5.71-.09-9.53-.03-1.99-.05-2.98-.1-4.96,.01-.43,.22-.8,.61-1.14,.39-.33,.76-.49,1.11-.48,.27,.01,.46,.14,.59,.38,.13,.25,.21,.52,.26,.81,.05,.3,.09,.5,.12,.61,2.07,.14,6.89,.37,14.47,.69,5.59,.23,9.94,.1,13.04-.42,3.1-.52,4.77-.79,5-.78,.54,.02,.95,.33,1.23,.94,.29,.61,.42,1.22,.4,1.85-.01,.4-.13,.71-.35,.92-.22,.22-.56,.37-1.03,.46-1.32,.51-3.73,.83-7.23,.97-3.49,.14-7.13,.12-10.92-.07-3.21-.16-6.2-.33-8.95-.52-2.75-.19-4.61-.3-5.56-.35,.01,.7,.02,2.04,.03,4.02,0,1.98-.03,4.05,0,6.11,.03,3.07,.26,6.65,.47,10.58,.17,3.18,.2,5.1,.14,5.74-.05,.59-.28,.94-.67,1.06-.4,.12-.86,.16-1.39,.1-.49-.05-.86-.39-1.11-1.03-.25-.64-.36-1.38-.32-2.24Z"/><path class="d" d="M724.52,146.3c-.28-1.59-.45-4.03-.53-7.3-.09-3.28-.11-5.96-.05-8.04,.1-3.26,.25-6.53,.46-9.79,.21-3.27,.34-5.37,.42-6.32-2.2-.23-4.47-.44-6.81-.64-2.34-.2-3.95-.32-4.83-.38-.08,2.14-.14,5.36-.24,9.66-.05,1.25-.07,1.88-.12,3.13-.11,3.47,.21,6.21,.99,8.24,.36,1.06,.5,1.81,.43,2.25-.07,.38-.26,.67-.58,.86-.32,.19-.64,.26-.94,.21-.67-.12-1.22-1.34-1.66-3.66-.44-2.32-.62-4.84-.61-7.52,.01-2.25,.05-4.79,.13-7.58,.08-2.79,.13-4.63,.16-5.5-6.51-.53-11.43-.24-14.77,.85-.58,1.47-1.06,2.93-1.44,4.37-.38,1.44-.74,3.31-1.09,5.61-.35,2.3-.49,4.52-.41,6.68,.08,2.16,.32,3.93,.73,5.33,.41,1.39,.89,2.14,1.45,2.25,.3,.05,.6,.03,.91-.08,.31-.11,.64-.26,.98-.47,.13-.09,.34-.22,.63-.42,.29-.19,.5-.28,.65-.25,.37,.07,.46,.68,.25,1.84-.15,.84-.54,1.52-1.16,2.03-.62,.51-1.23,.71-1.82,.59-1.2-.22-2.23-1.19-3.12-2.89-.89-1.7-1.47-3.89-1.76-6.59-.29-2.7-.2-5.6,.28-8.71,.48-3.17,.98-5.76,1.5-7.76,.53-2,1.21-3.55,2.06-4.43,1.09-1.12,3.07-1.77,5.67-1.95,2.6-.18,6.04-.19,10.33-.04-.06-1.05-.09-2.22-.07-3.5,.01-1.29,.05-2.25,.12-2.9s.27-1.16,.6-1.53c.33-.37,.7-.54,1.12-.49,.27,.03,.49,.12,.66,.28,.18,.16,.27,.37,.28,.65-.04,1.81-.09,3.12-.15,3.94-.05,1.41-.07,2.12-.13,3.53,4.91,.39,8.92,.66,12.01,.82,.1-.83,.16-1.5,.18-2,.16-1.53,.23-2.3,.38-3.83,.06-.5,.19-.88,.41-1.13,.22-.26,.44-.37,.67-.35,.91,.1,1.42,1.06,1.53,2.88,0,.68-.01,1.54-.04,2.58-.03,1.04-.06,1.73-.1,2.06,.67,1.15,.92,2.38,.75,3.66-.03,.22-.18,.39-.44,.5-.26,.11-.45,.15-.57,.14-.36,3.68-.68,8.08-1,13.2-.21,3.37-.31,8.61-.45,15.72-.05,1.26-.07,1.89-.12,3.15-.1,.55-.38,.79-.83,.7-.45-.08-.75-.63-.91-1.63Z"/><path class="d" d="M676.43,203.88c1.37-5.27,2.03-7.91,3.26-13.21,.83-3.67,1.23-5.51,1.99-9.2,.4-1.92,.6-2.88,.98-4.8,.11-.41,.39-.73,.84-.97,.45-.24,.84-.31,1.17-.23,.26,.07,.42,.23,.49,.49,.07,.26,.09,.54,.08,.84-.02,.29-.02,.5-.01,.61,1.97,.56,6.58,1.78,13.85,3.66,5.36,1.38,9.59,2.15,12.71,2.29,3.12,.14,4.79,.23,5.01,.29,.51,.13,.84,.52,.99,1.16,.14,.64,.14,1.27-.02,1.86-.1,.38-.28,.65-.54,.82-.26,.16-.62,.24-1.09,.24-1.39,.21-3.79,.03-7.21-.56s-6.93-1.36-10.55-2.33c-3.08-.82-5.92-1.6-8.55-2.35-2.62-.75-4.39-1.25-5.31-1.49-.14,.67-.42,1.97-.85,3.88-.43,1.91-.92,3.9-1.34,5.89-.64,2.96-1.2,6.46-1.85,10.3-.53,3.1-.92,4.96-1.11,5.57-.18,.55-.48,.85-.88,.89-.41,.04-.87-.03-1.37-.19-.47-.15-.75-.56-.85-1.23-.1-.67-.04-1.41,.18-2.22Z"/><path class="d" d="M688.26,261.25c.63-2.21,1.48-4.99,2.55-8.33,1.07-3.35,2.91-7.5,2.67-8.09-.21-.51-5.74-2.59-12.85-5.57-7.12-2.98-12.4-5.14-15.83-6.49-.99,2.66-2.22,6.21-3.79,10.54-1.32,3.64-2.14,5.69-2.32,6.13-.37,.87-.85,1.6-1.43,2.18-.58,.58-1.16,.75-1.75,.5-.48-.2-.78-.46-.9-.76-.11-.3-.01-.81,.3-1.54,.12-.29,.5-1.12,1.17-2.32,.5-.89,.96-1.7,1.25-2.37,.95-2.27,2.75-6.85,5.19-13.81-.15-.34-.23-.69-.23-1.05,0-.36,.04-.67,.14-.91,.11-.29,.28-.57,.49-.82s.44-.37,.67-.34c.39-1.36,.59-2.04,.97-3.4,1.06-3.95,1.89-6.87,2.55-8.74,.57-1.63,1.24-2.78,2.03-3.45,.44-.35,1.03-.4,1.79-.15,.21,.07,.43,.32,.64,.75,.21,.43,.26,.82,.14,1.17-.03,.1-.27,.45-.69,1.06-.43,.6-.75,1.2-.96,1.8-.64,1.83-1.53,4.56-2.7,8.16-.44,1.38-.66,2.07-1.11,3.46,3.05,1.32,4.57,1.99,7.62,3.32,.79,.35,1.51,.67,2.14,.96,.63,.29,1.18,.52,1.64,.69,6.82,2.86,10.22,4.3,17.03,7.18,1.83-5.48,2.62-8.12,2.53-7.85,1.67-5.42,2.6-8.61,2.93-9.55,.31-.89,.79-1.67,1.46-2.32,.66-.66,1.3-.89,1.91-.69,.43,.14,.71,.42,.85,.85,.13,.43,.1,.93-.1,1.51-.14,.42-.31,.84-.49,1.25-.18,.41-.36,.82-.55,1.23-.64,1.26-1.17,2.49-1.6,3.7-.41,1.15-1.14,3.38-2.22,6.67-1.08,3.29-2.35,6.26-2.22,6.59,.06,.16,.73,.6,.87,1.13,.14,.53,.08,1.13-.19,1.81-.12,.31-.37,.52-.73,.62-.36,.1-.72,.09-1.07-.05-1.11,3.04-2.8,8.64-5.31,16.75-.2,.65-.3,1.41-.31,2.28-.01,.87-.04,1.36-.09,1.47-.22,.51-.58,.94-1.06,1.29-.48,.34-.93,.43-1.34,.25-.66-.28-.91-.96-.76-2.05,.15-1.09,.52-2.63,1.09-4.62Z"/><path class="d" d="M663.66,306.57c-.55-1.1-1.39-2.37-2.52-3.8-1.14-1.43-2.87-3.52-5.23-6.25-1.63-1.86-2.44-2.79-4.08-4.63-4.89-5.56-8.51-9.19-10.77-11.01-.5-.42-.78-1.03-.86-1.83-.08-.8,.19-1.8,.8-3.01,.14-.28,2.06-.58,5.76-.94,3.7-.36,8.63-.83,14.8-1.49,3.69-.44,7.21-1.02,10.54-1.74,3.33-.73,5.37-1.35,6.02-1.84,.83-.63,1.51-.88,2.03-.65,.24,.1,.41,.59,.52,1.45,.1,.86,0,1.65-.33,2.35-.21,.45-.42,.76-.63,.9-.21,.15-.57,.32-1.08,.52-.95,.36-2.87,.81-5.74,1.32-2.87,.51-5.95,.93-9.22,1.25-5.21,.52-7.82,.75-13.01,1.15-4.03,.37-6.37,.53-7.05,.55,.59,.41,1.89,1.58,3.87,3.53,1.99,1.95,4.2,4.22,6.59,6.8,3.47,3.76,6.16,6.84,8.08,9.15,1.93,2.31,3.37,4.31,4.32,6,.85,1.5,1.34,2.67,1.48,3.51,.14,.83,0,1.62-.4,2.36-.13,.25-.61,.5-1.42,.77-.81,.27-1.3,.36-1.46,.27-.1-.05-.16-.59-.19-1.62-.03-1.03-.3-2.05-.81-3.07Z"/><path class="d" d="M610.44,337.31c.3-.44,.63-.82,1.01-1.14,.38-.32,.99-.78,1.83-1.37,3.01-2.03,6.56-4.98,10.59-8.9,1.76-1.74,3.77-3.84,6.02-6.34,2.25-2.49,3.97-4.49,5.18-5.95-2.62-1.23-3.93-1.85-6.54-3.09-.9-.45-1.73-.71-2.49-.79-.76-.07-1.22-.15-1.38-.25-.35-.2-.51-.62-.45-1.26,.05-.64,.24-1.22,.55-1.76,.4-.68,.99-.91,1.78-.71,.07,.04,.39,.14,.98,.32,.59,.18,1.35,.53,2.29,1.06,.62,.35,2.02,.98,4.11,1.94,.7,.32,1.39,.66,2.05,.97,.66,.31,1.43,.86,1.72,.87,.11,0,.39-.19,.65-.33,.25-.14,.55-.23,.84-.22,.35,0,.75,.08,1.13,.17,.38,.09,.65,.18,.81,.27,.23,.13,.35,.32,.37,.58,.02,.26,0,.62-.05,1.09,8.29,4.27,13.03,6.72,14.2,7.38,1.04,.58,1.99,1.14,2.84,1.68s1.42,.89,1.71,1.05c.14-.31,.57-1.23,1.28-2.76,.71-1.53,1.24-2.77,1.61-3.72,1.28-3.39,2.12-6.02,2.58-7.9,.45-1.87,.8-3.72,1.05-5.53,.04-.54,.11-1.05,.21-1.53,.1-.48,.26-.91,.47-1.3,.21-.39,.51-.67,.92-.84,.41-.17,.79-.16,1.16,.02,.63,.32,.55,2.27-.32,5.85-.86,3.58-2.07,7.36-3.61,11.32-.87,2.22-2.11,4.97-3.75,8.25-1.64,3.28-3.3,6.26-4.95,8.96-2.83,4.62-5.64,8.32-8.37,11.1-2.73,2.78-5.25,4.59-7.51,5.44-2.27,.85-4.16,.77-5.69-.21-1.96-1.27-3.08-3.18-3.39-5.73-.31-2.55-.09-5.5,.63-8.87,.72-3.37,1.89-7.8,3.42-13.3,.35-1.43,.71-2.82,1.1-4.19,.38-1.37,.63-2.3,.75-2.79-.19-.11-.35-.17-.48-.18-3.74,4.56-7.62,8.91-11.62,13.06-.48,.5-.72,.75-1.2,1.25-4.2,4.27-7.4,7.32-9.53,9.25-2.13,1.92-3.39,2.75-3.76,2.5s-.67-.76-.89-1.54c-.23-.78-.18-1.42,.15-1.9Zm44.68-5.68c1.81-2.97,2.9-4.88,3.29-5.69-.2-.18-.7-.54-1.5-1.09-.8-.55-1.62-1.06-2.46-1.54-3.18-1.65-4.77-2.47-7.94-4.13-2.48-1.26-3.71-1.88-6.19-3.14-.22,.44-.55,1.35-1.02,2.74-.46,1.39-.82,2.58-1.07,3.56-1.95,6.85-3.13,12.2-3.38,16.09s.64,6.51,2.74,7.84c1.03,.66,2.44,.59,4.21-.21,1.77-.8,3.83-2.41,6.16-4.83,2.32-2.43,4.73-5.63,7.16-9.61Z"/><path class="d" d="M608.7,393.98c.54-1.52,1.59-3.72,3.11-6.63,1.53-2.9,2.81-5.26,3.88-7.05,1.67-2.81,3.39-5.59,5.16-8.35,1.77-2.76,2.9-4.54,3.43-5.33-1.79-1.18-3.65-2.38-5.58-3.59-1.93-1.21-3.26-2.04-3.99-2.48-1.11,1.83-2.72,4.61-4.89,8.32-.65,1.07-.98,1.61-1.63,2.68-1.78,2.98-2.84,5.52-3.16,7.64-.21,1.09-.45,1.81-.73,2.15-.24,.3-.55,.47-.93,.49-.37,.03-.68-.05-.91-.23-.53-.4-.4-1.72,.35-3.94,.75-2.22,1.82-4.51,3.14-6.84,1.11-1.96,2.37-4.16,3.8-6.56,1.43-2.4,2.35-3.98,2.81-4.73-5.37-3.36-9.77-5.3-13.19-5.83-1.22,1.03-2.34,2.08-3.37,3.17-1.03,1.09-2.25,2.56-3.67,4.42-1.42,1.85-2.63,3.74-3.61,5.66-.98,1.92-1.64,3.59-1.97,4.99-.33,1.4-.28,2.27,.16,2.61,.23,.18,.51,.29,.83,.34,.32,.04,.68,.05,1.08,.02,.16-.02,.4-.04,.75-.09,.34-.04,.57-.02,.69,.07,.29,.22,.07,.8-.68,1.72-.54,.67-1.21,1.09-2,1.26-.78,.17-1.41,.07-1.87-.29-.93-.73-1.35-2.04-1.29-3.92,.06-1.88,.63-4.06,1.69-6.55,1.06-2.49,2.56-4.98,4.49-7.5,1.96-2.56,3.65-4.6,5.07-6.11,1.43-1.51,2.76-2.56,3.93-2.95,1.49-.49,3.52-.18,5.85,.82,2.33,1,5.32,2.52,8.95,4.56,.45-.94,1-1.97,1.63-3.09,.63-1.11,1.13-1.94,1.51-2.47,.37-.53,.79-.89,1.26-1.07,.46-.18,.87-.16,1.2,.07,.22,.14,.36,.32,.44,.54,.08,.21,.05,.44-.07,.69-.91,1.56-1.59,2.68-2.03,3.37-.72,1.21-1.09,1.82-1.82,3.02,4.06,2.53,7.39,4.55,9.99,6.06,.49-.68,.86-1.24,1.12-1.66,.88-1.26,1.31-1.9,2.18-3.17,.29-.41,.59-.68,.9-.8,.31-.13,.56-.13,.75,0,.74,.49,.72,1.56-.07,3.19-.33,.59-.75,1.33-1.28,2.23-.53,.89-.89,1.48-1.09,1.75,.02,1.3-.35,2.48-1.12,3.53-.13,.18-.34,.26-.62,.24-.28-.02-.47-.07-.56-.13-2.1,3.05-4.51,6.75-7.27,11.07-1.82,2.85-4.45,7.38-8.06,13.54-.66,1.08-.99,1.62-1.65,2.7-.36,.44-.72,.52-1.06,.25-.35-.27-.34-.88,0-1.83Z"/><path class="d" d="M615.81,191.41c-1.05-3.35-2.01-6.71-2.87-10.09-.87-3.38-1.41-6.12-1.59-8.22-.36-.25-.6-.53-.73-.85-.12-.32-.11-.75,.04-1.27,.11-.4,.26-.66,.43-.8,.18-.14,.43-.16,.76-.07,.22,.06,1.1,.42,2.65,1.07,1.55,.65,3.39,1.29,5.54,1.9,3.64,1.04,6.99,1.88,9.94,2.61,3.42,.84,5.86,1.52,7.25,1.91,2.15,.61,3.9,1.38,5.05,2.35,.75,.63,.97,1.55,.66,2.64-.11,.38-.26,.7-.46,.98-.2,.27-.44,.4-.62,.32-.16-.07-.73-.54-1.69-1.3-.96-.76-1.93-1.29-2.91-1.57-2.72-.79-5.76-1.56-8.99-2.39-4.13-1.06-7.05-1.91-8.65-2.37-2.72-.79-4.35-1.29-4.88-1.5,.05,1.75,.47,4.22,1.22,7.44,.76,3.22,1.46,5.99,2.15,8.28,1.55,4.79,3.07,8.49,4.66,11.06,1.59,2.56,3.56,4.28,5.94,5.12,2.88,1.01,5.7-.62,8.36-4.98,2.66-4.36,5.22-10.4,7.49-18.15,.69-2.36,1.38-5.6,2.02-9.7,.17-.77,.31-2.01,.4-3.71,0-.76,.04-1.28,.12-1.57,.1-.38,.43-.69,1-.92,.57-.23,1.09-.29,1.57-.17,.18,.05,.32,.26,.4,.64,.08,.38,.06,.93-.05,1.67-.45,2.95-.9,5.45-1.31,7.52-.42,2.06-1.01,4.45-1.8,7.16-2.53,8.64-5.57,15.37-8.86,20.2-3.29,4.83-6.73,6.56-10.21,5.32-2.77-.99-5.02-2.95-6.8-5.85-1.78-2.9-3.47-7.14-5.2-12.68Z"/><path class="d" d="M619.61,252.24c.05-1.44,.38-3.58,.95-6.41,.58-2.83,1.09-5.13,1.57-6.9,.75-2.77,1.55-5.52,2.41-8.25,.86-2.74,1.41-4.5,1.68-5.28-2.05-.75-4.17-1.5-6.36-2.26-2.19-.76-3.69-1.27-4.52-1.54-.51,1.8-1.22,4.52-2.17,8.16-.3,1.06-.45,1.59-.75,2.64-.8,2.93-1.04,5.36-.71,7.29,.13,1,.12,1.68-.04,2.03-.14,.31-.38,.5-.73,.59-.35,.08-.66,.06-.93-.06-.62-.27-.89-1.46-.85-3.55,.05-2.09,.37-4.29,.93-6.58,.46-1.91,1.01-4.07,1.65-6.42,.64-2.36,1.05-3.9,1.26-4.64-6.09-2.09-10.83-3.09-14.23-3-.85,1.1-1.59,2.21-2.24,3.34-.65,1.13-1.36,2.62-2.15,4.49-.79,1.86-1.36,3.72-1.71,5.58-.35,1.86-.47,3.43-.35,4.73,.11,1.29,.42,2.06,.94,2.29,.27,.12,.57,.18,.88,.17,.31-.01,.66-.06,1.03-.15,.14-.04,.37-.1,.68-.19,.31-.09,.53-.11,.67-.05,.34,.15,.3,.7-.13,1.63-.31,.68-.81,1.16-1.5,1.44-.68,.28-1.3,.29-1.85,.04-1.09-.5-1.88-1.59-2.39-3.27-.51-1.68-.63-3.7-.38-6.07,.25-2.37,.92-4.81,1.99-7.34,1.09-2.57,2.07-4.64,2.97-6.2,.9-1.56,1.86-2.71,2.85-3.23,1.27-.68,3.28-.73,5.79-.23,2.51,.5,5.79,1.36,9.84,2.56,.15-.91,.36-1.9,.64-2.99,.27-1.09,.51-1.9,.71-2.43,.2-.53,.49-.92,.88-1.15s.78-.28,1.17-.14c.25,.09,.44,.22,.57,.4,.14,.18,.18,.38,.13,.62-.41,1.52-.73,2.62-.95,3.31-.33,1.19-.5,1.78-.84,2.97,4.6,1.57,8.36,2.8,11.27,3.71,.27-.68,.46-1.24,.58-1.66,.46-1.26,.69-1.9,1.15-3.17,.15-.41,.36-.7,.62-.86,.26-.16,.5-.21,.71-.13,.85,.31,1.14,1.25,.87,2.83-.14,.58-.33,1.31-.56,2.19-.24,.88-.41,1.46-.52,1.73,.4,1.15,.39,2.26-.03,3.31-.07,.18-.25,.29-.52,.31-.27,.02-.46,.02-.57-.02-1.09,3.05-2.29,6.73-3.63,11.02-.88,2.83-2.03,7.29-3.58,13.36-.29,1.07-.44,1.61-.75,2.68-.21,.45-.52,.58-.93,.39-.41-.19-.59-.73-.54-1.63Z"/><path class="d" d="M563.43,99.87c-1.48-2.04-2.89-4.37-4.26-6.99-.89-1.72-1.65-3.37-2.26-4.97-.62-1.6-.9-2.79-.83-3.57,.03-.39,.17-.72,.4-1,.23-.27,.56-.39,.98-.34,.61,.06,1.11,.36,1.51,.88,.4,.52,.69,1.19,.89,2.01,.12,.41,.24,1,.31,1.71,.09,.9,.24,1.77,.51,2.52,.51,1.42,1.34,3.13,2.48,5.12,1.14,1.99,2.16,3.59,3.09,4.79,1.52,1.97,2.88,3.53,4.1,4.64,1.21,1.12,2.53,1.79,3.96,2.02,.79,.12,1.42-.19,1.89-.96,.47-.77,.78-1.74,.94-2.94,.39-3.04,.22-5.9-.49-8.53-.33-1.17-.58-1.97-.73-2.4-.46-1.55-.82-2.82-1.07-3.8-.28-1.11-.52-2.17-.73-3.18-.2-1.01-.35-1.69-.44-2.03-.87-.04-1.31-.06-2.18-.1-.57-.06-1.48-.12-2.74-.19-1.26-.07-2.44-.16-3.54-.27-2.62-.27-4.74-.69-6.34-1.25-.52-.21-.89-.43-1.1-.65-.21-.22-.3-.6-.26-1.16,.03-.35,.16-.68,.41-.97,.25-.29,.55-.43,.89-.39,.11,.01,.75,.25,1.9,.72,1.15,.47,2.19,.75,3.1,.84,2.97,.28,6.76,.51,11.39,.66,1.06,.03,1.58,.04,2.64,.06,2.53-.01,4.52,.05,5.96,.18,1.1,.1,2.5,.32,4.18,.65,1.68,.33,2.78,.56,3.31,.7-.26-1.66-.8-3.79-1.64-6.37-.22-.74-.66-1.72-1.27-2.91-.56-1.09-.83-1.85-.81-2.23,.02-.34,.16-.63,.44-.86,.28-.24,.61-.34,.99-.32,.73,.05,1.61,1.53,2.59,4.48,.99,2.95,1.79,6.17,2.4,9.63,.55,3.12,.9,5.89,1.05,8.3,.15,2.4,.08,4.85-.21,7.34-.26,2.27-.89,4.11-1.86,5.51-.97,1.4-2.16,1.99-3.55,1.78-3.32-.5-6.46-3.05-9.54-7.51,.02,1.81-.07,3.44-.26,4.89-.25,1.9-.83,3.48-1.74,4.72-.91,1.24-2.21,1.72-3.9,1.44-1.8-.3-3.51-1.31-5.14-3.01-1.63-1.7-3.43-3.95-5.43-6.71Zm29.09-1.95c.2-1.75,.26-3.97,.16-6.66-.1-2.69-.31-4.78-.61-6.27-2.52-.99-4.66-1.56-6.41-1.74-2.47-.25-5.6-.43-9.38-.56,0,.41,.11,1.1,.29,2.05,.19,.95,.4,1.84,.63,2.66,1.16,4.08,2.78,7.6,4.9,10.54,2.12,2.95,4.43,4.64,7,5,.91,.13,1.66-.26,2.25-1.17,.59-.91,.99-2.2,1.18-3.86Z"/><path class="d" d="M553.05,139c.63-4.06,.92-6.09,1.44-10.15,.34-2.82,.49-4.23,.78-7.05,.15-1.47,.23-2.21,.37-3.68,.05-.31,.29-.56,.71-.74,.42-.18,.79-.24,1.13-.18,.26,.05,.44,.18,.54,.38,.1,.2,.16,.41,.18,.64,.02,.23,.04,.38,.06,.47,2.01,.43,6.71,1.36,14.1,2.79,5.45,1.06,9.72,1.64,12.81,1.74,3.09,.1,4.75,.16,4.97,.2,.52,.1,.89,.4,1.11,.9,.22,.5,.29,.99,.2,1.45-.05,.3-.2,.51-.44,.64-.24,.13-.59,.19-1.05,.19-1.35,.17-3.74,.03-7.17-.42-3.43-.45-6.99-1.05-10.68-1.79-3.13-.63-6.03-1.23-8.71-1.81-2.68-.58-4.48-.96-5.41-1.15-.06,.52-.17,1.51-.35,2.98-.18,1.47-.4,3-.56,4.52-.24,2.27-.34,4.97-.46,7.93-.1,2.39-.23,3.83-.34,4.3-.1,.43-.35,.65-.74,.68-.4,.02-.85-.03-1.36-.16-.48-.12-.81-.44-1-.96-.19-.52-.23-1.09-.13-1.72Z"/><path class="d" d="M555.47,180.45c-.09-.33-.12-.97,0-1.88,.12-.91,.22-1.52,.28-1.84-1.46-.15-2.17-.22-2.13-.21-.98-.04-2.31-.16-3.98-.4-3.82-.54-7.13-.92-9.89-1.09-.88-.1-1.39-.18-1.54-.23-.36-.12-.61-.38-.76-.76-.15-.38-.16-.78-.02-1.18,.12-.37,.42-.64,.89-.81,.47-.17,.87-.26,1.19-.27,1.32,.08,2.78,.23,4.37,.46,1.59,.23,3.53,.49,5.74,.83,.97,.15,2.21,.3,3.7,.41,1.49,.11,2.47,.18,2.94,.21,.45-2.39,1.13-6.52,1.87-12.4,.17-1.42,.25-2.14,.41-3.56-1.15-.87-1.73-1.3-2.88-2.15-1.57-1.15-2.35-1.73-3.93-2.87-3.61-2.47-6.43-4.26-8.44-5.41-.48-.25-.85-.6-1.11-1.03-.26-.43-.33-.89-.21-1.38,.1-.41,.3-.73,.59-.95,.29-.22,.64-.28,1.04-.18,.4,.11,1.2,.56,2.38,1.36,1.19,.8,1.89,1.28,2.13,1.42,.33,.25,1.09,.78,2.29,1.6,1.3,.89,2.86,2,4.67,3.36,1.82,1.35,3.01,2.27,3.59,2.73,.1-2.12,.12-3.71,.12-4.75,0-1.57,.06-2.55,.14-2.9,.11-.43,.34-.71,.71-.85,.36-.13,.73-.16,1.1-.06,.44,.11,.71,.31,.82,.59s.17,.71,.18,1.31c-.04,1.58-.12,3.26-.23,5.02-.11,1.76-.2,2.98-.27,3.64,.95,.69,1.79,1.24,2.43,1.65,.42,.27,.96,.67,1.6,1.13,.64,.46,1.44,1,2.4,1.63,1.01,.68,1.52,1.02,2.52,1.71,4.43,2.95,6.96,4.69,7.55,5.14,.45,.34,.79,.67,1.02,.94,.24,.27,.31,.57,.21,.9-.24,.82-.57,1.52-.98,2.11,.05,.1,.16,.28,.34,.54,.18,.26,.28,.51,.3,.77,.02,.25-.02,.56-.14,.93-.23,.74-1.23,1.36-3,1.84-1.77,.48-3.81,.84-6.1,1.06-1.35,.13-3.33,.21-5.93,.22-2.6,0-4.31,0-5.14-.03-.12,.61-.19,1.14-.2,1.59-.01,.45-.02,.74-.02,.87,0,.22,.06,.48,.16,.77,.1,.3,.16,.56,.18,.78,.02,.23-.06,.44-.24,.63-.39,.43-.92,.53-1.59,.29-.25-.09-.49-.25-.73-.48-.24-.24-.38-.52-.45-.78Zm13.4-6.58c1.5-.14,3.1-.42,4.78-.87,1.68-.45,2.79-.93,3.34-1.43-.48-.44-.72-.67-1.21-1.11-1.14-1.2-2.21-2.16-3.22-2.91-2.32-1.76-6.18-4.59-11.63-8.4-.34,2.89-.52,4.33-.91,7.22-.35,2.36-.53,3.54-.92,5.89-.11,.66-.17,.99-.29,1.65,.71,.02,2.19,.05,4.46,.1,2.26,.04,4.14-.02,5.6-.16Z"/><path class="d" d="M526.42,224.18c-.72-2.36-1.28-4.98-1.71-7.85-.28-1.88-.44-3.66-.5-5.35-.06-1.69,.07-2.89,.38-3.6,.16-.36,.39-.63,.7-.81,.31-.18,.65-.19,1.02-.02,.55,.24,.92,.67,1.13,1.28s.26,1.33,.18,2.16c-.02,.42-.1,1.01-.27,1.7-.21,.87-.35,1.73-.35,2.52,.01,1.49,.24,3.34,.66,5.56,.42,2.21,.86,4.03,1.33,5.43,.78,2.32,1.55,4.19,2.32,5.61,.77,1.42,1.78,2.45,3.05,3.1,.7,.36,1.39,.25,2.08-.33,.69-.58,1.3-1.4,1.83-2.48,1.36-2.74,2.13-5.47,2.32-8.16,.07-1.2,.1-2.02,.1-2.47,.08-1.59,.15-2.89,.23-3.89,.09-1.12,.21-2.19,.35-3.2,.14-1.01,.22-1.69,.25-2.03-.8-.3-1.2-.45-2-.75-.51-.23-1.35-.56-2.51-1.01-1.16-.45-2.23-.89-3.23-1.33-2.37-1.05-4.21-2.08-5.53-3.09-.42-.36-.69-.67-.82-.94-.13-.27-.08-.66,.13-1.16,.14-.32,.37-.59,.7-.78,.33-.2,.65-.23,.96-.1,.1,.04,.62,.46,1.55,1.25,.93,.79,1.8,1.37,2.63,1.73,2.68,1.17,6.16,2.53,10.44,4.07,.98,.34,1.47,.52,2.45,.86,2.37,.76,4.21,1.42,5.52,1.98,1,.43,2.23,1.05,3.7,1.87,1.47,.82,2.42,1.37,2.87,1.66,.29-1.63,.48-3.79,.53-6.46,.03-.76-.06-1.81-.25-3.11-.17-1.19-.18-1.98-.04-2.33,.12-.31,.35-.54,.69-.67,.34-.14,.68-.13,1.03,0,.66,.27,1.01,1.92,.98,4.98-.03,3.06-.32,6.31-.87,9.75-.49,3.09-1.06,5.79-1.71,8.09-.64,2.3-1.5,4.58-2.58,6.82-.98,2.05-2.17,3.59-3.53,4.61-1.36,1.02-2.66,1.21-3.9,.59-2.94-1.47-5.05-4.82-6.49-9.94-.57,1.71-1.19,3.21-1.83,4.51-.85,1.71-1.91,3.02-3.17,3.91-1.25,.89-2.63,.95-4.12,.17-1.59-.83-2.86-2.29-3.83-4.39-.97-2.09-1.92-4.75-2.89-7.95Zm27.85,6.99c.75-1.58,1.53-3.65,2.31-6.2,.78-2.55,1.26-4.58,1.46-6.07-2.04-1.69-3.86-2.88-5.44-3.57-2.23-.98-5.1-2.1-8.59-3.38-.13,.39-.26,1.06-.39,2.01-.13,.95-.22,1.84-.27,2.68-.24,4.18,.14,7.97,1.16,11.38,1.02,3.41,2.64,5.7,4.92,6.82,.8,.4,1.63,.26,2.48-.41,.85-.68,1.64-1.76,2.36-3.27Z"/><path class="d" d="M503.87,257.91c1.93-3.64,2.87-5.47,4.7-9.15,1.25-2.56,1.86-3.84,3.05-6.42,.63-1.34,.94-2.01,1.55-3.35,.15-.28,.45-.44,.9-.48,.45-.05,.82,.01,1.12,.17,.23,.13,.36,.3,.39,.52,.03,.22,.01,.44-.04,.66-.06,.22-.09,.37-.09,.46,1.74,1.01,5.83,3.31,12.28,6.89,4.76,2.64,8.56,4.48,11.42,5.51,2.86,1.03,4.4,1.59,4.59,1.69,.46,.25,.71,.65,.75,1.19,.04,.54-.05,1.02-.29,1.43-.15,.26-.35,.42-.62,.47-.26,.05-.61,0-1.04-.14-1.32-.25-3.51-1.1-6.58-2.56-3.07-1.46-6.2-3.1-9.42-4.92-2.72-1.54-5.24-2.99-7.56-4.34-2.32-1.35-3.88-2.26-4.69-2.72-.22,.47-.65,1.37-1.3,2.7-.65,1.33-1.36,2.71-2.02,4.09-.97,2.07-1.95,4.59-3.05,7.35-.88,2.23-1.48,3.55-1.74,3.95-.24,.37-.54,.51-.92,.42-.38-.1-.79-.28-1.23-.56-.41-.26-.61-.66-.62-1.21,0-.55,.14-1.1,.45-1.66Z"/><path class="d" d="M492.29,297.86c.02-.34,.22-.96,.64-1.78,.42-.82,.72-1.38,.89-1.66-1.32-.58-1.96-.86-1.93-.84-.91-.33-2.12-.85-3.6-1.57-3.41-1.66-6.38-3-8.92-4-.79-.36-1.25-.58-1.37-.67-.29-.22-.44-.54-.46-.95-.01-.41,.12-.78,.38-1.13,.24-.31,.61-.48,1.11-.5,.5-.02,.9,.01,1.21,.1,1.22,.47,2.53,1.05,3.95,1.74,1.42,.69,3.15,1.52,5.11,2.51,.86,.43,1.98,.95,3.34,1.5,1.36,.55,2.26,.91,2.69,1.08,1.22-2.13,3.25-5.83,5.91-11.17,.64-1.29,.95-1.94,1.57-3.24-.79-1.16-1.19-1.74-1.98-2.9-1.09-1.56-1.63-2.34-2.73-3.89-2.56-3.42-4.61-5.96-6.11-7.66-.37-.38-.6-.82-.7-1.31-.1-.49-.01-.94,.27-1.37,.23-.36,.52-.6,.87-.72,.35-.12,.69-.08,1.03,.15,.34,.22,.94,.89,1.78,2,.84,1.11,1.35,1.78,1.52,1.99,.22,.34,.76,1.07,1.61,2.2,.92,1.23,2.01,2.75,3.26,4.58,1.25,1.83,2.07,3.05,2.46,3.66,.79-1.97,1.35-3.47,1.69-4.45,.52-1.49,.9-2.4,1.1-2.7,.24-.38,.56-.57,.94-.59,.39-.02,.74,.07,1.05,.27,.37,.24,.57,.51,.57,.8,0,.3-.08,.72-.27,1.29-.56,1.48-1.19,3.04-1.88,4.68-.69,1.63-1.18,2.75-1.46,3.36,.66,.94,1.27,1.71,1.73,2.29,.31,.39,.68,.92,1.12,1.55,.44,.63,1.01,1.38,1.71,2.27,.72,.95,1.08,1.42,1.8,2.38,3.17,4.12,4.96,6.53,5.37,7.13,.3,.46,.52,.87,.65,1.2,.13,.33,.1,.63-.1,.91-.5,.7-1.04,1.27-1.63,1.7,0,.11,.06,.32,.14,.61,.08,.3,.09,.57,.03,.81-.06,.25-.21,.53-.44,.84-.46,.63-1.61,.91-3.43,.84-1.83-.08-3.85-.35-6.08-.83-1.31-.28-3.19-.8-5.64-1.57-2.44-.77-4.05-1.3-4.82-1.57-.32,.54-.56,1.02-.72,1.45-.16,.42-.27,.7-.31,.82-.07,.21-.11,.47-.11,.78,0,.31-.04,.57-.09,.8-.05,.22-.2,.4-.44,.53-.51,.29-1.04,.23-1.6-.2-.2-.16-.38-.38-.52-.68-.14-.3-.18-.6-.16-.87Zm14.79-2.21c1.45,.32,3.05,.53,4.77,.62,1.72,.08,2.93-.04,3.61-.35-.3-.56-.46-.85-.76-1.41-.67-1.47-1.35-2.71-2.04-3.72-1.59-2.36-4.26-6.2-8.11-11.44-1.28,2.63-1.93,3.94-3.26,6.55-1.12,2.13-1.69,3.19-2.84,5.3-.33,.59-.49,.89-.83,1.48,.66,.23,2.04,.71,4.15,1.43,2.11,.72,3.89,1.22,5.31,1.53Z"/></g></g></g><g id="c"/></svg>